<?xml version="1.0" ?><!-- Uploaded to: SVG Repo, www.svgrepo.com, Generator: SVG Repo Mixer Tools -->
<svg width="800px" height="800px" viewBox="0 0 512 512" data-name="Layer 1" id="Layer_1" xmlns="http://www.w3.org/2000/svg"><defs><style>.cls-1{fill:none;stroke:#2b2b2b;stroke-linecap:round;stroke-linejoin:round;stroke-width:13px;}.cls-2{fill:#2b2b2b;}</style></defs><title/><rect class="cls-1" height="298.68" width="224" x="144" y="106.66"/><rect class="cls-1" height="74.68" width="149.33" x="181.33" y="144"/><rect class="cls-2" height="25.48" rx="12.74" width="25.48" x="181.33" y="257.97"/><rect class="cls-2" height="25.48" rx="12.74" width="25.48" x="222.62" y="257.97"/><rect class="cls-2" height="25.48" rx="12.74" width="25.48" x="263.9" y="257.97"/><rect class="cls-2" height="25.48" rx="12.74" width="25.48" x="305.19" y="257.97"/><rect class="cls-2" height="25.48" rx="12.74" width="25.48" x="181.33" y="299.27"/><rect class="cls-2" height="25.48" rx="12.74" width="25.48" x="222.62" y="299.27"/><rect class="cls-2" height="25.48" rx="12.74" width="25.48" x="263.9" y="299.27"/><rect class="cls-2" height="25.48" rx="12.74" width="25.48" x="305.19" y="299.27"/><rect class="cls-2" height="25.48" rx="12.74" width="25.48" x="181.33" y="340.56"/><rect class="cls-2" height="25.48" rx="12.74" width="25.48" x="222.62" y="340.56"/><rect class="cls-2" height="25.48" rx="12.74" width="25.48" x="263.9" y="340.56"/><rect class="cls-2" height="25.48" rx="12.74" width="25.48" x="305.19" y="340.56"/><rect class="cls-2" height="66.77" rx="12.74" width="25.48" x="305.19" y="299.27"/></svg>